<svg width="40" height="40" xmlns="http://www.w3.org/2000/svg"><g fill="#FFF" fill-rule="evenodd"><circle opacity=".319" cx="20" cy="20" r="20"/><path d="M22.408 23.22c0-.5-.177-.891-.532-1.171-.355-.28-.978-.57-1.87-.87-.892-.299-1.621-.589-2.188-.868-1.842-.905-2.763-2.149-2.763-3.73 0-.789.23-1.484.688-2.086.46-.602 1.109-1.07 1.948-1.406.84-.335 1.784-.503 2.832-.503 1.023 0 1.939.182 2.75.547.81.364 1.44.884 1.89 1.557.448.674.673 1.444.673 2.31h-3.418c0-.58-.177-1.029-.532-1.348-.355-.319-.835-.478-1.44-.478-.613 0-1.096.135-1.45.405-.356.27-.533.614-.533 1.03 0 .365.195.695.586.992.39.296 1.077.602 2.06.918.983.315 1.79.655 2.422 1.02 1.537.885 2.305 2.106 2.305 3.662 0 1.244-.469 2.22-1.406 2.93-.938.71-2.224 1.064-3.858 1.064-1.152 0-2.195-.206-3.13-.62-.934-.413-1.637-.98-2.109-1.699-.472-.72-.708-1.548-.708-2.485h3.438c0 .761.196 1.323.59 1.684.394.362 1.034.542 1.92.542.566 0 1.013-.122 1.342-.366.329-.244.493-.588.493-1.03z" fill-rule="nonzero"/></g></svg>